# xmcd
#
# Track frame offsets:
#	150
#	14024
#	36898
#	51013
#	62602
#	73212
#	89444
#	101840
#	118774
#	133437
#	141762
#	163321
#	176466
#	192553
#	204685
#	223850
#	239787
#	249376
#	263542
#	273777
#
# Disc length: 3832
#
# Revision: 1
# Processed by: cddbd v1.5.1PL0 Copyright (c) Steve Scherf et al.
# Submitted via: audiograbber 1.83.01
# Normalized: r0:DSETVAR1
#
DISCID=420ef614
DTITLE=Various Artist - The Best Folk Album in the World [1]
DYEAR=2004
DGENRE=Folk
TTITLE0=The Kingston Trio - Where Have All The Flowers Gone
TTITLE1=Donovan - Catch The Wind
TTITLE2=Gorgon Lightfoot - Early Mornin' Rain
TTITLE3=The Seekers - Blowin' In The Wind
TTITLE4=Peter and Gordon - Homeward Bound
TTITLE5=The Stone Poneys - December Dream
TTITLE6=Fred Neil - Everybody's Talkin'
TTITLE7=The Dubliners - Seven Drunken Nights
TTITLE8=The Band - I Shall Be Released
TTITLE9=Jeff Beck - Greensleeves
TTITLE10=Peter Sarstedt - Where Do You Go To (My Lovely)
TTITLE11=Shirley and Dolly Collins - A Foresaking - Our Captain Cried
TTITLE12=John Stewart - Willard
TTITLE13=Barclay James Harvest - The Iron Maiden
TTITLE14=Lindisfarne - Lady Eleanor
TTITLE15=Dory Previn - Mythical Kings And Iguanas
TTITLE16=Leo Kottke - Poor Boy
TTITLE17=Artie Traum - Love Song To A Girl In An Old Photo
TTITLE18=Townes Van Zandt - The Highway Kind
TTITLE19=Jethro Tull - Thick As A Brick (Edit No 1)
EXTD=Compilation Disc now with Artists names
EXTT0=
EXTT1=
EXTT2=
EXTT3=
EXTT4=
EXTT5=
EXTT6=
EXTT7=
EXTT8=
EXTT9=
EXTT10=
EXTT11=
EXTT12=
EXTT13=
EXTT14=
EXTT15=
EXTT16=
EXTT17=
EXTT18=
EXTT19=
PLAYORDER=
